<?xml version="1.0" encoding="UTF-8" standalone="no"?>
<svg
   xmlns:dc="http://purl.org/dc/elements/1.1/"
   xmlns:cc="http://creativecommons.org/ns#"
   xmlns:rdf="http://www.w3.org/1999/02/22-rdf-syntax-ns#"
   xmlns:svg="http://www.w3.org/2000/svg"
   xmlns="http://www.w3.org/2000/svg"
   xmlns:sodipodi="http://sodipodi.sourceforge.net/DTD/sodipodi-0.dtd"
   xmlns:inkscape="http://www.inkscape.org/namespaces/inkscape"
   inkscape:version="1.0 (4035a4fb49, 2020-05-01)"
   sodipodi:docname="avataaars - kopie.svg"
   xml:space="preserve"
   style="enable-background:new 0 0 264 280;"
   viewBox="0 0 264 280"
   y="0px"
   x="0px"
   id="Layer_1"
   version="1.1"><metadata
   id="metadata183"><rdf:RDF><cc:Work
       rdf:about=""><dc:format>image/svg+xml</dc:format><dc:type
         rdf:resource="http://purl.org/dc/dcmitype/StillImage" /></cc:Work></rdf:RDF></metadata><defs
   id="defs181" /><sodipodi:namedview
   inkscape:current-layer="g162"
   inkscape:window-maximized="0"
   inkscape:window-y="0"
   inkscape:window-x="953"
   inkscape:cy="159.60217"
   inkscape:cx="125.64414"
   inkscape:zoom="1.5178571"
   showgrid="false"
   id="namedview179"
   inkscape:window-height="1008"
   inkscape:window-width="958"
   inkscape:pageshadow="2"
   inkscape:pageopacity="0"
   guidetolerance="10"
   gridtolerance="10"
   objecttolerance="10"
   borderopacity="1"
   bordercolor="#666666"
   pagecolor="#ffffff" />
<style
   id="style2"
   type="text/css">
	.st0{fill-rule:evenodd;clip-rule:evenodd;fill:#E6E6E6;}
	.st1{filter:url(#Adobe_OpacityMaskFilter);}
	.st2{fill-rule:evenodd;clip-rule:evenodd;fill:#FFFFFF;}
	.st3{mask:url(#mask-2_1_);}
	.st4{fill-rule:evenodd;clip-rule:evenodd;fill:#2C3E50;}
	.st5{filter:url(#Adobe_OpacityMaskFilter_1_);}
	.st6{mask:url(#mask-4_1_);}
	.st7{fill-rule:evenodd;clip-rule:evenodd;fill:#D0C6AC;}
	.st8{filter:url(#Adobe_OpacityMaskFilter_2_);}
	.st9{mask:url(#mask-6_1_);}
	.st10{fill-rule:evenodd;clip-rule:evenodd;fill:#EDB98A;}
	.st11{filter:url(#Adobe_OpacityMaskFilter_3_);}
	.st12{mask:url(#mask-6_2_);fill-rule:evenodd;clip-rule:evenodd;fill-opacity:0.1;}
	.st13{filter:url(#Adobe_OpacityMaskFilter_4_);}
	.st14{mask:url(#react-mask-952_1_);}
	.st15{filter:url(#Adobe_OpacityMaskFilter_5_);}
	.st16{opacity:0.6;mask:url(#react-mask-952_2_);}
	.st17{fill-rule:evenodd;clip-rule:evenodd;fill-opacity:0.16;}
	.st18{fill-rule:evenodd;clip-rule:evenodd;fill-opacity:0.7;}
	.st19{filter:url(#Adobe_OpacityMaskFilter_6_);}
	.st20{mask:url(#react-mask-934_1_);fill-rule:evenodd;clip-rule:evenodd;fill:#FFFFFF;}
	.st21{filter:url(#Adobe_OpacityMaskFilter_7_);}
	.st22{mask:url(#react-mask-934_2_);}
	.st23{fill-rule:evenodd;clip-rule:evenodd;fill:#FF4F6D;}
	.st24{fill-rule:evenodd;clip-rule:evenodd;fill-opacity:0.6;}
	.st25{filter:url(#Adobe_OpacityMaskFilter_8_);}
	.st26{mask:url(#react-mask-925_1_);}
	.st27{fill-rule:evenodd;clip-rule:evenodd;fill:#28354B;}
	.st28{filter:url(#Adobe_OpacityMaskFilter_9_);}
	.st29{mask:url(#react-mask-924_1_);}
	.st30{fill-rule:evenodd;clip-rule:evenodd;fill:#4A312C;}
</style>
<desc
   id="desc4">Created with getavataaars.com</desc>
<g
   id="g176">
	<g
   id="g174"
   transform="translate(-825.000000, -1100.000000)">
		<g
   id="g172"
   transform="translate(825.000000, 1100.000000)">
			<g
   transform="translate(12.000000, 40.000000)"
   id="Circle">
				<g
   id="Circle-Background">
					<circle
   id="circle6"
   r="120"
   cy="120"
   cx="120"
   class="st0" />
				</g>
				<defs
   id="defs12">
					<filter
   height="240"
   width="240"
   y="0"
   x="0"
   filterUnits="userSpaceOnUse"
   id="Adobe_OpacityMaskFilter">
						<feColorMatrix
   id="feColorMatrix9"
   values="1 0 0 0 0  0 1 0 0 0  0 0 1 0 0  0 0 0 1 0"
   type="matrix" />
					</filter>
				</defs>
				<mask
   id="mask-2_1_"
   height="240"
   width="240"
   y="0"
   x="0"
   maskUnits="userSpaceOnUse">
					<g
   id="g15"
   class="st1">
						<circle
   r="120"
   cy="120"
   cx="120"
   class="st2"
   id="path-1_1_" />
					</g>
				</mask>
				<g
   id="g20"
   mask="url(#mask-2_1_)"
   class="st3">
					<rect
   id="rect18"
   height="240"
   width="240"
   class="st4" />
				</g>
			</g>
			<g
   id="Mask">
			</g>
			<defs
   id="defs27">
				<filter
   height="280"
   width="265"
   y="0"
   x="-1"
   filterUnits="userSpaceOnUse"
   id="Adobe_OpacityMaskFilter_1_">
					<feColorMatrix
   id="feColorMatrix24"
   values="1 0 0 0 0  0 1 0 0 0  0 0 1 0 0  0 0 0 1 0"
   type="matrix" />
				</filter>
			</defs>
			<mask
   id="mask-4_1_"
   height="280"
   width="265"
   y="0"
   x="-1"
   maskUnits="userSpaceOnUse">
				<g
   id="g30"
   class="st5">
					<path
   d="M12,160c0,66.3,53.7,120,120,120s120-53.7,120-120h12V0H0v160H12z"
   class="st2"
   id="path-3_1_" />
				</g>
			</mask>
			<g
   mask="url(#mask-4_1_)"
   class="st6"
   id="Avataaar">
				<g
   transform="translate(32.000000, 36.000000)"
   id="Body">
					<g
   id="g35">
						<path
   id="path33"
   d="M124,144.6V163h4l0,0c39.8,0,72,32.2,72,72v9H0v-9c0-39.8,32.2-72,72-72l0,0h4v-18.4        c-17.2-8.2-29.6-24.9-31.7-44.7C38.5,99.1,34,94.1,34,88V74c0-5.9,4.3-10.9,10-11.8V56l0,0c0-30.9,25.1-56,56-56l0,0l0,0        c30.9,0,56,25.1,56,56v6.2c5.7,1,10,5.9,10,11.8v14c0,6.1-4.5,11.1-10.3,11.9C153.6,119.7,141.2,136.4,124,144.6z"
   class="st7" />
					</g>
					<defs
   id="defs40">
						<filter
   height="244"
   width="264"
   y="0"
   x="-32"
   filterUnits="userSpaceOnUse"
   id="Adobe_OpacityMaskFilter_2_">
							<feColorMatrix
   id="feColorMatrix37"
   values="1 0 0 0 0  0 1 0 0 0  0 0 1 0 0  0 0 0 1 0"
   type="matrix" />
						</filter>
					</defs>
					<mask
   id="mask-6_1_"
   height="244"
   width="264"
   y="0"
   x="-32"
   maskUnits="userSpaceOnUse">
						<g
   id="g43"
   class="st8">
							<path
   d="M124,144.6V163h4l0,0c39.8,0,72,32.2,72,72v9H0v-9c0-39.8,32.2-72,72-72l0,0h4v-18.4         c-17.2-8.2-29.6-24.9-31.7-44.7C38.5,99.1,34,94.1,34,88V74c0-5.9,4.3-10.9,10-11.8V56l0,0c0-30.9,25.1-56,56-56l0,0l0,0         c30.9,0,56,25.1,56,56v6.2c5.7,1,10,5.9,10,11.8v14c0,6.1-4.5,11.1-10.3,11.9C153.6,119.7,141.2,136.4,124,144.6z"
   class="st2"
   id="path-5_1_" />
						</g>
					</mask>
					<g
   id="g49"
   mask="url(#mask-6_1_)"
   class="st9">
						<g
   transform="translate(-32.000000, 0.000000)"
   id="Color">
							<rect
   id="rect46"
   height="244"
   width="264"
   class="st10" />
						</g>
					</g>
					<defs
   id="defs54">
						<filter
   height="79"
   width="112"
   y="79"
   x="44"
   filterUnits="userSpaceOnUse"
   id="Adobe_OpacityMaskFilter_3_">
							<feColorMatrix
   id="feColorMatrix51"
   values="1 0 0 0 0  0 1 0 0 0  0 0 1 0 0  0 0 0 1 0"
   type="matrix" />
						</filter>
					</defs>
					<mask
   id="mask-6_2_"
   height="79"
   width="112"
   y="79"
   x="44"
   maskUnits="userSpaceOnUse">
						<g
   id="g57"
   class="st11">
							<path
   d="M124,144.6V163h4l0,0c39.8,0,72,32.2,72,72v9H0v-9c0-39.8,32.2-72,72-72l0,0h4v-18.4         c-17.2-8.2-29.6-24.9-31.7-44.7C38.5,99.1,34,94.1,34,88V74c0-5.9,4.3-10.9,10-11.8V56l0,0c0-30.9,25.1-56,56-56l0,0l0,0         c30.9,0,56,25.1,56,56v6.2c5.7,1,10,5.9,10,11.8v14c0,6.1-4.5,11.1-10.3,11.9C153.6,119.7,141.2,136.4,124,144.6z"
   class="st2"
   id="path-5_2_" />
						</g>
					</mask>
					<path
   mask="url(#mask-6_2_)"
   d="M156,79v23c0,30.9-25.1,56-56,56s-56-25.1-56-56V79v15c0,30.9,25.1,56,56,56       s56-25.1,56-56V79z"
   class="st12"
   id="Neck-Shadow" />
				</g>
				<g
   id="g92"
   transform="translate(0.000000, 170.000000)">
					<g
   id="Clothes">
						<path
   id="path62"
   d="M166,29.3c37,3,66,34,66,71.8v8.9H32v-8.9C32,63,61.6,31.8,99,29.2c0,0.4,0,0.7,0,1.1        c0,11.9,15,21.5,33.5,21.5S166,42.2,166,30.3C166,30,166,29.6,166,29.3z"
   class="st0" />
					</g>
					<defs
   id="defs68">
						<filter
   height="110"
   width="264"
   y="0"
   x="0"
   filterUnits="userSpaceOnUse"
   id="Adobe_OpacityMaskFilter_4_">
							<feColorMatrix
   id="feColorMatrix65"
   values="1 0 0 0 0  0 1 0 0 0  0 0 1 0 0  0 0 0 1 0"
   type="matrix" />
						</filter>
					</defs>
					<mask
   id="react-mask-952_1_"
   height="110"
   width="264"
   y="0"
   x="0"
   maskUnits="userSpaceOnUse">
						<g
   id="g71"
   class="st13">
							<path
   d="M166,29.3c37,3,66,34,66,71.8v8.9H32v-8.9C32,63,61.6,31.8,99,29.2         c0,0.4,0,0.7,0,1.1c0,11.9,15,21.5,33.5,21.5S166,42.2,166,30.3C166,30,166,29.6,166,29.3z"
   class="st2"
   id="react-path-951_1_" />
						</g>
					</mask>
					<g
   id="g76"
   mask="url(#react-mask-952_1_)"
   class="st14">
						<rect
   id="rect74"
   height="110"
   width="264"
   class="st2" />
					</g>
					<defs
   id="defs81">
						<filter
   height="53.8"
   width="79.3"
   y="4.9"
   x="92.9"
   filterUnits="userSpaceOnUse"
   id="Adobe_OpacityMaskFilter_5_">
							<feColorMatrix
   id="feColorMatrix78"
   values="1 0 0 0 0  0 1 0 0 0  0 0 1 0 0  0 0 0 1 0"
   type="matrix" />
						</filter>
					</defs>
					<mask
   id="react-mask-952_2_"
   height="53.8"
   width="79.3"
   y="4.9"
   x="92.9"
   maskUnits="userSpaceOnUse">
						<g
   id="g84"
   class="st15">
							<path
   d="M166,29.3c37,3,66,34,66,71.8v8.9H32v-8.9C32,63,61.6,31.8,99,29.2         c0,0.4,0,0.7,0,1.1c0,11.9,15,21.5,33.5,21.5S166,42.2,166,30.3C166,30,166,29.6,166,29.3z"
   class="st2"
   id="react-path-951_2_" />
						</g>
					</mask>
					<g
   mask="url(#react-mask-952_2_)"
   class="st16"
   id="Shadowy">
						<g
   id="g89"
   transform="translate(92.000000, 4.000000)">
							<ellipse
   id="ellipse87"
   ry="26.9"
   rx="39.6"
   cy="27.8"
   cx="40.5"
   class="st17" />
						</g>
					</g>
				</g>
				<g
   transform="translate(76.000000, 82.000000)"
   id="Face">
					<g
   id="g123"
   transform="translate(2.000000, 52.000000)">
						<g
   id="Mouth">
							<path
   id="path94"
   d="M35.1,15.1C36.2,24.6,44.2,32,54,32c9.8,0,17.9-7.4,18.9-17c0.1-0.8-0.8-2-1.8-2c-14.9,0-26.3,0-34,0         C36,13,35,14.2,35.1,15.1z"
   class="st18" />
						</g>
						<defs
   id="defs100">
							<filter
   height="16"
   width="31"
   y="2"
   x="39"
   filterUnits="userSpaceOnUse"
   id="Adobe_OpacityMaskFilter_6_">
								<feColorMatrix
   id="feColorMatrix97"
   values="1 0 0 0 0  0 1 0 0 0  0 0 1 0 0  0 0 0 1 0"
   type="matrix" />
							</filter>
						</defs>
						<mask
   id="react-mask-934_1_"
   height="16"
   width="31"
   y="2"
   x="39"
   maskUnits="userSpaceOnUse">
							<g
   id="g103"
   class="st19">
								<path
   d="M35.1,15.1C36.2,24.6,44.2,32,54,32c9.8,0,17.9-7.4,18.9-17          c0.1-0.8-0.8-2-1.8-2c-14.9,0-26.3,0-34,0C36,13,35,14.2,35.1,15.1z"
   class="st2"
   id="react-path-933_1_" />
							</g>
						</mask>
						<path
   mask="url(#react-mask-934_1_)"
   d="M44,2h21c2.8,0,5,2.2,5,5v6c0,2.8-2.2,5-5,5H44c-2.8,0-5-2.2-5-5V7C39,4.2,41.2,2,44,2z"
   class="st20"
   id="Teeth" />
						<defs
   id="defs110">
							<filter
   height="22"
   width="32"
   y="24"
   x="38"
   filterUnits="userSpaceOnUse"
   id="Adobe_OpacityMaskFilter_7_">
								<feColorMatrix
   id="feColorMatrix107"
   values="1 0 0 0 0  0 1 0 0 0  0 0 1 0 0  0 0 0 1 0"
   type="matrix" />
							</filter>
						</defs>
						<mask
   id="react-mask-934_2_"
   height="22"
   width="32"
   y="24"
   x="38"
   maskUnits="userSpaceOnUse">
							<g
   id="g113"
   class="st21">
								<path
   d="M35.1,15.1C36.2,24.6,44.2,32,54,32c9.8,0,17.9-7.4,18.9-17          c0.1-0.8-0.8-2-1.8-2c-14.9,0-26.3,0-34,0C36,13,35,14.2,35.1,15.1z"
   class="st2"
   id="react-path-933_2_" />
							</g>
						</mask>
						<g
   mask="url(#react-mask-934_2_)"
   class="st22"
   id="Tongue">
							<g
   id="g120"
   transform="translate(38.000000, 24.000000)">
								<circle
   id="circle116"
   r="11"
   cy="11"
   cx="11"
   class="st23" />
								<circle
   id="circle118"
   r="11"
   cy="11"
   cx="21"
   class="st23" />
							</g>
						</g>
					</g>
					<g
   id="g126"
   transform="translate(28.000000, 40.000000)">
						<path
   d="M16,8c0,4.4,5.4,8,12,8l0,0c6.6,0,12-3.6,12-8"
   class="st17"
   id="Nose" />
					</g>
					<g
   id="g131"
   transform="translate(0.000000, 8.000000)">
						<path
   d="M16.2,22.4C18,18.6,22.2,16,27,16c4.8,0,9,2.6,10.8,6.4c0.6,1.1-0.2,2-1,1.4        c-2.5-2.1-5.9-3.4-9.8-3.4c-3.7,0-7.1,1.2-9.6,3.2C16.5,24.3,15.6,23.6,16.2,22.4z"
   class="st24"
   id="Squint" />
						<path
   id="path129"
   d="M74.2,22.4C76,18.6,80.2,16,85,16c4.8,0,9,2.6,10.8,6.4c0.6,1.1-0.2,2-1,1.4c-2.5-2.1-5.9-3.4-9.8-3.4        c-3.7,0-7.1,1.2-9.6,3.2C74.5,24.3,73.6,23.6,74.2,22.4z"
   class="st24" />
					</g>
					<g
   id="g136">
						<path
   d="M26.5,6.1c-5.8,0.3-15.2,4.5-15,10.3c0,0.2,0.3,0.3,0.4,0.1c2.8-3,22.3-5.9,29.2-4.4        c0.6,0.1,1.1-0.5,0.7-0.9C38.5,7.5,31.7,5.9,26.5,6.1"
   class="st24"
   id="Eyebrow" />
						<path
   id="path134"
   d="M86.5,6.1c5.8,0.3,15.2,4.5,15,10.3c0,0.2-0.3,0.3-0.4,0.1c-2.8-3-22.3-5.9-29.2-4.4        c-0.6,0.1-1.1-0.5-0.7-0.9C74.5,7.5,81.3,5.9,86.5,6.1"
   class="st24" />
					</g>
				</g>
				<g
   id="Top">
					<defs
   id="defs142">
						<filter
   height="280"
   width="264"
   y="0"
   x="-1"
   filterUnits="userSpaceOnUse"
   id="Adobe_OpacityMaskFilter_8_">
							<feColorMatrix
   id="feColorMatrix139"
   values="1 0 0 0 0  0 1 0 0 0  0 0 1 0 0  0 0 0 1 0"
   type="matrix" />
						</filter>
					</defs>
					<mask
   id="react-mask-925_1_"
   height="280"
   width="264"
   y="0"
   x="-1"
   maskUnits="userSpaceOnUse">
						<g
   id="g145"
   class="st25">
							<rect
   height="280"
   width="264"
   class="st2"
   id="react-path-927_1_" />
						</g>
					</mask>
					<g
   id="g168"
   mask="url(#react-mask-925_1_)"
   class="st26">
						<g
   id="g166"
   transform="translate(-1.000000, 0.000000)">
							<g
   id="Short-Hair">
								<path
   id="path148"
   d="M183.7,38.9c5.4-5,6.7-15,3.6-21.5c-3.8-8-11.4-9-18.7-5.5c-6.9,3.3-13.1,4.4-20.6,2.8          c-7.3-1.5-14.1-4.3-21.6-4.7C114,9.3,102,13.9,93.6,23.1c-1.6,1.8-2.9,3.8-4.1,5.8c-1,1.6-2.1,3.4-2.5,5.3          c-0.2,0.9,0.2,3.1-0.3,3.8c-0.5,0.8-2.3,1.5-3.1,2.1c-1.6,1.2-2.9,2.5-4.2,4c-2.7,3.2-4.1,6.6-5.4,10.6          c-4.1,13.2-4.5,29,0.9,42c0.7,1.7,2.9,5.4,4.2,1.6c0.3-0.7-0.3-3.2-0.3-3.9c0-2.7,1.5-20.7,8-30.8c2.1-3.3,12-15.6,14-15.7          c1.1,1.7,11.9,12.5,39.9,11.2c12.7-0.6,22.4-6.3,24.7-8.7c1,5.5,13,13.8,14.8,17.2c5.3,9.8,6.4,30.3,8.4,30.3          s3.5-5.2,3.9-6.2c3.1-7.4,3.6-16.6,3.3-24.6C195.5,57,191.3,45.9,183.7,38.9z"
   class="st27" />
							</g>
							<defs
   id="defs154">
								<filter
   height="280"
   width="264"
   y="0"
   x="0"
   filterUnits="userSpaceOnUse"
   id="Adobe_OpacityMaskFilter_9_">
									<feColorMatrix
   id="feColorMatrix151"
   values="1 0 0 0 0  0 1 0 0 0  0 0 1 0 0  0 0 0 1 0"
   type="matrix" />
								</filter>
							</defs>
							<mask
   id="react-mask-924_1_"
   height="280"
   width="264"
   y="0"
   x="0"
   maskUnits="userSpaceOnUse">
								<g
   id="g157"
   class="st28">
									<path
   d="M183.7,38.9c5.4-5,6.7-15,3.6-21.5c-3.8-8-11.4-9-18.7-5.5           c-6.9,3.3-13.1,4.4-20.6,2.8c-7.3-1.5-14.1-4.3-21.6-4.7C114,9.3,102,13.9,93.6,23.1c-1.6,1.8-2.9,3.8-4.1,5.8           c-1,1.6-2.1,3.4-2.5,5.3c-0.2,0.9,0.2,3.1-0.3,3.8c-0.5,0.8-2.3,1.5-3.1,2.1c-1.6,1.2-2.9,2.5-4.2,4           c-2.7,3.2-4.1,6.6-5.4,10.6c-4.1,13.2-4.5,29,0.9,42c0.7,1.7,2.9,5.4,4.2,1.6c0.3-0.7-0.3-3.2-0.3-3.9           c0-2.7,1.5-20.7,8-30.8c2.1-3.3,12-15.6,14-15.7c1.1,1.7,11.9,12.5,39.9,11.2c12.7-0.6,22.4-6.3,24.7-8.7           c1,5.5,13,13.8,14.8,17.2c5.3,9.8,6.4,30.3,8.4,30.3s3.5-5.2,3.9-6.2c3.1-7.4,3.6-16.6,3.3-24.6           C195.5,57,191.3,45.9,183.7,38.9z"
   class="st2"
   id="react-path-926_1_" />
								</g>
							</mask>
							<g
   id="g164"
   mask="url(#react-mask-924_1_)"
   class="st29">
								<g
   transform="translate(0.000000, 0.000000) "
   id="g162">
									<rect
   style="fill:#2C1B18"
   y="-3.2941177"
   x="-14.164706"
   id="rect160"
   height="280"
   width="1000000"
   class="st30" />
								</g>
							</g>
						</g>
					</g>
				</g>
			</g>
		</g>
	</g>
</g>
</svg>
